<?xml version="1.0" encoding="iso-8859-1"?>
<svg version="1.1" id="Capa_1"
	xmlns="http://www.w3.org/2000/svg"
	xmlns:xlink="http://www.w3.org/1999/xlink" x="0px" y="0px" viewBox="0 0 612 612" style="enable-background:new 0 0 612 612;" xml:space="preserve">
	<path fill="#9e9e9e" d="M546.37,162.469h-6.792l-17.247-48.623c-1.642-4.626-5.345-8.227-10.017-9.733l-22.224-7.177
		c-8.297-2.68-17.179,1.871-19.853,10.159c-2.677,8.29,1.873,17.179,10.159,19.853l14.811,4.784l10.902,30.736h-4.685
		c-3.101,0-5.916,1.818-7.19,4.649l-12.785,28.391c-0.518,1.151-0.753,2.412-0.682,3.672l4.809,86.736
		c0.233,4.178,3.687,7.448,7.873,7.448h4.915v188.03c0,20.982-11.914,39.221-29.327,48.342V412.451
		c0-11.546-4.165-22.133-11.061-30.357V58.767C457.977,26.363,431.616,0,399.212,0H127.576C95.172,0,68.811,26.363,68.811,58.767
		v323.322c-6.898,8.223-11.064,18.812-11.064,30.36v152.238c0,26.089,21.225,47.313,47.315,47.313h316.662
		c23.579,0,43.179-17.336,46.735-39.931c39.899-10.857,69.333-47.383,69.333-90.675V293.366h8.577c4.354,0,7.885-3.53,7.885-7.885
		V170.356C554.255,166.001,550.725,162.469,546.37,162.469z M263.393,429.999c-36.936,0-66.879-29.943-66.879-66.879
		c0-36.935,66.879-107.605,66.879-107.605s66.877,70.671,66.877,107.605C330.27,400.056,300.326,429.999,263.393,429.999z
		 M394.897,168.746H131.893V63.082h263.004V168.746z"/>

</svg>
